<?xml version="1.0" encoding="UTF-8" standalone="no"?>
<!-- Created with Inkscape (http://www.inkscape.org/) -->

<svg
   width="90mm"
   height="30mm"
   viewBox="0 0 89.999999 29.999999"
   version="1.1"
   id="svg1"
   xml:space="preserve"
   inkscape:version="1.3 (0e150ed6c4, 2023-07-21)"
   sodipodi:docname="enemy_patrol.svg"
   xmlns:inkscape="http://www.inkscape.org/namespaces/inkscape"
   xmlns:sodipodi="http://sodipodi.sourceforge.net/DTD/sodipodi-0.dtd"
   xmlns="http://www.w3.org/2000/svg"
   xmlns:svg="http://www.w3.org/2000/svg"><sodipodi:namedview
     id="namedview1"
     pagecolor="#ffffff"
     bordercolor="#999999"
     borderopacity="1"
     inkscape:showpageshadow="0"
     inkscape:pageopacity="0"
     inkscape:pagecheckerboard="0"
     inkscape:deskcolor="#d1d1d1"
     inkscape:document-units="mm"
     inkscape:zoom="1.1723625"
     inkscape:cx="96.813059"
     inkscape:cy="69.944236"
     inkscape:window-width="1920"
     inkscape:window-height="1037"
     inkscape:window-x="1920"
     inkscape:window-y="128"
     inkscape:window-maximized="1"
     inkscape:current-layer="layer1" /><defs
     id="defs1" /><g
     inkscape:label="Layer 1"
     inkscape:groupmode="layer"
     id="layer1"
     transform="translate(-23.965716,-127.4223)"><path
       style="fill:#c90000;fill-opacity:1;stroke:#c24646;stroke-width:0.285365;stroke-linecap:round;stroke-linejoin:round;stroke-dasharray:none;stroke-opacity:1"
       d="m 25.023114,129.55246 c -1.221987,5.02723 -1.425696,20.47857 0.67676,25.61432 37.153287,4.55553 83.011116,1.46617 87.978856,-12.91625 -7.67044,-15.21051 -50.355737,-16.90508 -88.655616,-12.69807 z"
       id="path1"
       sodipodi:nodetypes="cccc" /><path
       style="fill:none;fill-opacity:1;stroke:#fefdfd;stroke-width:1.25;stroke-linecap:butt;stroke-linejoin:miter;stroke-opacity:1;stroke-dasharray:none"
       d="m 43.394756,132.0503 c 0.08547,0 -0.276218,-0.828 1.879175,-0.6938 2.485832,0.57601 8.496787,0.72617 14.418929,0.74553 7.755133,0.0254 15.357968,0.0504 15.357968,0.0504 0,0 4.439943,0.51369 6.919275,1.23239 1.07125,2.49249 1.452628,5.31609 1.452628,5.31609 l 0.119636,6.96369 c 0,0 -0.254162,2.91047 -1.103989,5.06177 -3.840715,1.22565 -7.136773,1.51977 -7.136773,1.51977 l -15.488807,-0.0601 c 0,0 -7.670186,0.2433 -14.715396,0.9893 -1.59441,0.065 -1.533458,-1.05249 -1.533458,-1.05249 z"
       id="path2"
       sodipodi:nodetypes="ccccccccccccc" /><ellipse
       style="fill:none;fill-opacity:1;stroke:#ffffff;stroke-width:1;stroke-linecap:round;stroke-linejoin:round;stroke-dasharray:none;stroke-opacity:1"
       id="path3"
       cy="142.08296"
       cx="93.656776"
       rx="5.1643848"
       ry="5.3278041" /></g></svg>
