<?xml version="1.0" encoding="UTF-8" standalone="no"?>
<!-- Created with Inkscape (http://www.inkscape.org/) -->

<svg
   width="59.933868mm"
   height="12.01766mm"
   viewBox="0 0 59.933868 12.01766"
   version="1.1"
   id="svg1"
   xml:space="preserve"
   sodipodi:docname="enemy_sub_world.svg"
   inkscape:version="1.3 (0e150ed6c4, 2023-07-21)"
   xmlns:inkscape="http://www.inkscape.org/namespaces/inkscape"
   xmlns:sodipodi="http://sodipodi.sourceforge.net/DTD/sodipodi-0.dtd"
   xmlns="http://www.w3.org/2000/svg"
   xmlns:svg="http://www.w3.org/2000/svg"><sodipodi:namedview
     id="namedview1"
     pagecolor="#ffffff"
     bordercolor="#999999"
     borderopacity="1"
     inkscape:showpageshadow="0"
     inkscape:pageopacity="0"
     inkscape:pagecheckerboard="0"
     inkscape:deskcolor="#d1d1d1"
     inkscape:document-units="mm"
     inkscape:zoom="2.8364758"
     inkscape:cx="108.40917"
     inkscape:cy="28.556563"
     inkscape:window-width="1920"
     inkscape:window-height="1037"
     inkscape:window-x="1920"
     inkscape:window-y="128"
     inkscape:window-maximized="1"
     inkscape:current-layer="layer1"
     showgrid="false" /><defs
     id="defs1" /><g
     inkscape:label="Layer 1"
     inkscape:groupmode="layer"
     id="layer1"
     transform="translate(-50.997774,-124.70901)"><path
       id="path1"
       style="fill:#ffffff;fill-opacity:1;stroke:none;stroke-width:0.533049;stroke-linecap:butt;stroke-linejoin:miter;stroke-dasharray:none;stroke-opacity:1"
       d="m 55.828489,124.70901 -0.0268,4.3323 c -0.21993,0.0583 -0.37123,0.10016 -0.57595,0.15452 -0.009,-0.58872 -0.0234,-1.18666 -0.0461,-1.77734 -1.5842,-0.0315 -3.02455,0.23263 -3.36636,0.34451 0.0165,0.81843 -0.004,1.63349 -0.0324,2.43201 -1.03314,0.39065 -1.04169,0.67134 -0.0395,1.06728 -0.0333,0.89603 -0.0591,1.76401 -0.0328,2.58042 0.3741,0.18727 2.2851,0.33011 3.49733,0.24758 0.008,-0.46655 0.0171,-1.07841 0.0241,-1.76735 0.19551,0.055 0.34112,0.0967 0.55018,0.15562 l -0.0219,3.54137 0.0701,0.70674 h 3.56692 v -0.49516 l -0.76938,-0.0703 c -0.008,-0.95448 -0.0102,-1.909 -0.009,-2.86345 0.88473,0.26286 1.82046,0.54636 2.85398,0.87397 0,0 4.3525,1.05158 18.06918,1.82553 12.43075,0.0742 5.41015,-0.0543 14.91927,0.0239 21.364381,-0.26318 22.533751,-9.75781 0.0581,-10.62968 l -14.66884,0.13238 c -13.70283,0.71316 -18.25823,1.90581 -18.25823,1.90581 -1.12731,0.33144 -2.00093,0.56634 -2.94879,0.82858 0.007,-0.99454 0.0151,-1.98907 0.0197,-2.98365 h 0.73445 v -0.49514 z" /></g></svg>
