<?xml version="1.0" encoding="UTF-8" standalone="no"?>
<!-- Created with Inkscape (http://www.inkscape.org/) -->

<svg
   width="12mm"
   height="60mm"
   viewBox="0 0 12 60"
   version="1.1"
   id="svg1"
   xml:space="preserve"
   sodipodi:docname="enemy_sub_world.svg"
   inkscape:version="1.3 (0e150ed6c4, 2023-07-21)"
   xmlns:inkscape="http://www.inkscape.org/namespaces/inkscape"
   xmlns:sodipodi="http://sodipodi.sourceforge.net/DTD/sodipodi-0.dtd"
   xmlns="http://www.w3.org/2000/svg"
   xmlns:svg="http://www.w3.org/2000/svg"><sodipodi:namedview
     id="namedview1"
     pagecolor="#ffffff"
     bordercolor="#999999"
     borderopacity="1"
     inkscape:showpageshadow="0"
     inkscape:pageopacity="0"
     inkscape:pagecheckerboard="0"
     inkscape:deskcolor="#d1d1d1"
     inkscape:document-units="mm"
     inkscape:zoom="2.8364758"
     inkscape:cx="17.803783"
     inkscape:cy="119.16195"
     inkscape:window-width="1920"
     inkscape:window-height="1037"
     inkscape:window-x="1920"
     inkscape:window-y="128"
     inkscape:window-maximized="1"
     inkscape:current-layer="layer1"
     showgrid="false" /><defs
     id="defs1" /><g
     inkscape:label="Layer 1"
     inkscape:groupmode="layer"
     id="layer1"
     transform="translate(-74.955877,-100.75088)"><path
       id="path1"
       style="fill:#ffffff;fill-opacity:1;stroke:none;stroke-width:0.533049;stroke-linecap:butt;stroke-linejoin:miter;stroke-dasharray:none;stroke-opacity:1"
       d="m 74.955877,155.85406 4.332299,0.0268 c 0.05832,0.21993 0.100165,0.37123 0.154526,0.57595 -0.588727,0.009 -1.186664,0.0234 -1.777342,0.0461 -0.03147,1.5842 0.232624,3.02455 0.344504,3.36636 0.818435,-0.0165 1.633493,0.004 2.432011,0.0324 0.390653,1.03314 0.671345,1.04169 1.067284,0.0395 0.896029,0.0333 1.764012,0.0591 2.580423,0.0328 0.187261,-0.3741 0.330103,-2.2851 0.24758,-3.49733 -0.466558,-0.008 -1.078413,-0.0171 -1.767358,-0.0241 0.05496,-0.19551 0.0967,-0.34112 0.155628,-0.55018 l 3.541365,0.0219 0.706743,-0.0701 v -3.56692 h -0.49516 l -0.07027,0.76938 c -0.954481,0.008 -1.909004,0.0102 -2.863454,0.009 0.262862,-0.88473 0.546365,-1.82046 0.873972,-2.85398 0,0 1.051583,-4.3525 1.825526,-18.06918 0.07415,-12.43075 -0.05433,-5.41015 0.02391,-14.91927 -0.263177,-21.364382 -9.75781,-22.533752 -10.629674,-0.0581 l 0.132375,14.66884 c 0.713163,13.70283 1.905816,18.25823 1.905816,18.25823 0.331435,1.12731 0.566334,2.00093 0.828577,2.94879 -0.994536,-0.007 -1.989073,-0.0151 -2.983651,-0.0197 V 152.2868 H 75.02637 Z" /></g></svg>
