<?xml version="1.0" encoding="UTF-8" standalone="no"?>
<!-- Created with Inkscape (http://www.inkscape.org/) -->

<svg
   width="11.45799mm"
   height="59.467419mm"
   viewBox="0 0 11.45799 59.467419"
   version="1.1"
   id="svg1"
   xml:space="preserve"
   sodipodi:docname="sub.svg"
   inkscape:version="1.3 (0e150ed6c4, 2023-07-21)"
   xmlns:inkscape="http://www.inkscape.org/namespaces/inkscape"
   xmlns:sodipodi="http://sodipodi.sourceforge.net/DTD/sodipodi-0.dtd"
   xmlns="http://www.w3.org/2000/svg"
   xmlns:svg="http://www.w3.org/2000/svg"><sodipodi:namedview
     id="namedview1"
     pagecolor="#ffffff"
     bordercolor="#999999"
     borderopacity="1"
     inkscape:showpageshadow="0"
     inkscape:pageopacity="0"
     inkscape:pagecheckerboard="0"
     inkscape:deskcolor="#d1d1d1"
     inkscape:document-units="mm"
     inkscape:zoom="2.0056913"
     inkscape:cx="57.087549"
     inkscape:cy="161.04173"
     inkscape:window-width="1920"
     inkscape:window-height="1037"
     inkscape:window-x="1920"
     inkscape:window-y="128"
     inkscape:window-maximized="1"
     inkscape:current-layer="layer1"
     showgrid="false" /><defs
     id="defs1" /><g
     inkscape:label="Layer 1"
     inkscape:groupmode="layer"
     id="layer1"
     transform="translate(-74.955877,-100.75088)"><path
       id="path1"
       style="fill:#ffffff;fill-opacity:1;stroke:none;stroke-width:0.51846;stroke-linecap:butt;stroke-linejoin:miter;stroke-dasharray:none;stroke-opacity:1"
       d="m 74.955877,155.42526 4.13054,0.0266 c 0.0556,0.21822 0.0955,0.36834 0.14733,0.57147 -0.56131,0.009 -1.1314,0.0232 -1.69457,0.0457 -0.03,1.57187 0.22179,3.00101 0.32846,3.34016 0.78032,-0.0164 1.55742,0.004 2.31875,0.0321 0.37246,1.0251 0.64008,1.03358 1.01758,0.0392 0.8543,0.033 1.68186,0.0586 2.46025,0.0326 0.17854,-0.37119 0.31473,-2.26732 0.23605,-3.47012 -0.44483,-0.008 -1.02819,-0.017 -1.68505,-0.0239 0.0524,-0.19399 0.0922,-0.33847 0.14838,-0.5459 l 3.37644,0.0217 0.67383,-0.0696 v -3.53917 h -0.4721 l -0.067,0.7634 c -0.91003,0.008 -1.8201,0.0101 -2.7301,0.009 0.25062,-0.87785 0.52092,-1.8063 0.83327,-2.83177 0,0 1.00261,-4.31863 1.74051,-17.92857 0.0707,-12.33402 -0.0518,-5.36805 0.0228,-14.80317 -0.25092,-21.198133 -9.30338,-22.358403 -10.13464,-0.0577 l 0.12621,14.55469 c 0.67995,13.59619 1.81706,18.11615 1.81706,18.11615 0.316,1.11853 0.53996,1.98535 0.78999,2.92584 -0.94822,-0.007 -1.89644,-0.015 -2.8447,-0.0196 v -0.72861 h -0.47208 z" /></g></svg>
