<?xml version="1.0" encoding="UTF-8" standalone="no"?>
<!-- Created with Inkscape (http://www.inkscape.org/) -->

<svg
   width="12.276818mm"
   height="64.244118mm"
   viewBox="0 0 12.276818 64.244118"
   version="1.1"
   id="svg1"
   xml:space="preserve"
   sodipodi:docname="sub_emission.svg"
   inkscape:version="1.3 (0e150ed6c4, 2023-07-21)"
   xmlns:inkscape="http://www.inkscape.org/namespaces/inkscape"
   xmlns:sodipodi="http://sodipodi.sourceforge.net/DTD/sodipodi-0.dtd"
   xmlns="http://www.w3.org/2000/svg"
   xmlns:svg="http://www.w3.org/2000/svg"><sodipodi:namedview
     id="namedview1"
     pagecolor="#ffffff"
     bordercolor="#999999"
     borderopacity="1"
     inkscape:showpageshadow="0"
     inkscape:pageopacity="0"
     inkscape:pagecheckerboard="0"
     inkscape:deskcolor="#d1d1d1"
     inkscape:document-units="mm"
     inkscape:zoom="2.4850481"
     inkscape:cx="4.627677"
     inkscape:cy="167.80359"
     inkscape:window-width="1920"
     inkscape:window-height="1037"
     inkscape:window-x="1920"
     inkscape:window-y="128"
     inkscape:window-maximized="1"
     inkscape:current-layer="layer1" /><defs
     id="defs1" /><g
     inkscape:label="Layer 1"
     inkscape:groupmode="layer"
     id="layer1"
     transform="translate(-77.133866,-98.971687)"><path
       id="path1"
       style="fill:none;fill-opacity:1;stroke:#ffffff;stroke-width:0.5;stroke-linecap:butt;stroke-linejoin:bevel;stroke-dasharray:none;stroke-opacity:1;paint-order:normal"
       d="m 77.383825,157.82802 4.24549,0.0285 c 0.0571,0.23391 0.0981,0.39482 0.15143,0.61256 -0.57694,0.01 -1.16289,0.0249 -1.74174,0.049 -0.0308,1.68493 0.22797,3.21686 0.3376,3.5804 0.80205,-0.0175 1.60077,0.005 2.3833,0.0344 0.38283,1.09883 0.65789,1.10791 1.04589,0.042 0.87808,0.0354 1.72866,0.0628 2.52872,0.035 0.18352,-0.39789 0.32349,-2.43039 0.24263,-3.7197 -0.45722,-0.008 -1.05681,-0.0182 -1.73196,-0.0257 0.0538,-0.20795 0.0947,-0.36281 0.15252,-0.58517 l 3.47041,0.0233 0.69257,-0.0746 v -3.79372 h -0.48522 l -0.0688,0.81831 c -0.93535,0.009 -1.87074,0.0108 -2.80607,0.01 0.25758,-0.94098 0.5354,-1.93621 0.85646,-3.03544 0,0 1.03051,-4.62923 1.78895,-19.21803 0.0727,-13.22113 -0.0532,-5.75414 0.0234,-15.86787 -0.2579,-22.722763 -9.56231,-23.966473 -10.4167,-0.0618 l 0.12973,15.60151 c 0.69887,14.57407 1.86763,19.41911 1.86763,19.41911 0.32479,1.19898 0.55498,2.12815 0.81196,3.13628 -0.97461,-0.008 -1.9492,-0.0161 -2.92386,-0.021 v -0.78101 h -0.48522 z" /></g></svg>
